<svg width="24" height="24" viewBox="0 0 24 24" fill="none" xmlns="http://www.w3.org/2000/svg">
<path opacity="0.5" d="M3.04501 11.75C3.17101 12.464 3.34801 13.291 3.55501 14.257L3.98301 16.257C4.47001 18.53 4.71401 19.666 5.53901 20.333C6.36401 21 7.52601 21 9.85001 21H14.15C16.474 21 17.636 21 18.46 20.333C19.286 19.666 19.53 18.53 20.016 16.257L20.445 14.257C20.652 13.291 20.829 12.464 20.955 11.75H3.04501Z" fill="#3E3C3C"/>
<path fill-rule="evenodd" clip-rule="evenodd" d="M9.25 14C9.25 13.8011 9.32902 13.6103 9.46967 13.4697C9.61032 13.329 9.80109 13.25 10 13.25H14C14.1989 13.25 14.3897 13.329 14.5303 13.4697C14.671 13.6103 14.75 13.8011 14.75 14C14.75 14.1989 14.671 14.3897 14.5303 14.5303C14.3897 14.671 14.1989 14.75 14 14.75H10C9.80109 14.75 9.61032 14.671 9.46967 14.5303C9.32902 14.3897 9.25 14.1989 9.25 14Z" fill="#3E3C3C"/>
<path d="M8.33001 2.665C8.42296 2.49436 8.57851 2.36645 8.76389 2.30822C8.94928 2.24999 9.15003 2.26598 9.32386 2.35283C9.49768 2.43968 9.63102 2.5906 9.69578 2.77381C9.76053 2.95702 9.75165 3.15821 9.67101 3.335L7.83601 7.005C8.32001 7 8.84601 7 9.42201 7H14.578C15.154 7 15.681 7 16.164 7.005L14.329 3.335C14.242 3.15726 14.2288 2.95232 14.2922 2.76486C14.3556 2.5774 14.4905 2.4226 14.6676 2.3342C14.8447 2.2458 15.0495 2.23097 15.2374 2.29293C15.4254 2.35489 15.5812 2.48863 15.671 2.665L17.872 7.067C19.225 7.171 20.074 7.437 20.622 8.114C21.058 8.653 21.198 9.323 21.147 10.25H21C21.05 10.25 21.099 10.255 21.146 10.264C21.1109 10.7625 21.0475 11.2587 20.956 11.75H3.04501C2.95267 11.2587 2.88857 10.7626 2.85301 10.264C2.90144 10.2546 2.95067 10.2499 3.00001 10.25H2.85301C2.80201 9.323 2.94301 8.653 3.37801 8.114C3.92601 7.436 4.77501 7.171 6.12801 7.067L8.33001 2.665Z" fill="#3E3C3C"/>
</svg>
