<svg width="24" height="24" viewBox="0 0 24 24" fill="none" xmlns="http://www.w3.org/2000/svg">
<path fill-rule="evenodd" clip-rule="evenodd" d="M12 2C7.582 2 4 5.646 4 10.143C4 14.605 6.553 19.813 10.537 21.674C10.9949 21.8884 11.4944 21.9996 12 21.9996C12.5056 21.9996 13.0051 21.8884 13.463 21.674C17.447 19.812 20 14.605 20 10.144C20 5.645 16.418 2 12 2ZM8.25 10C8.24995 9.41533 8.38661 8.83875 8.64906 8.31631C8.91152 7.79386 9.2925 7.34001 9.76158 6.99102C10.2307 6.64202 10.7748 6.40755 11.3507 6.30631C11.9265 6.20507 12.518 6.23988 13.078 6.40796C13.638 6.57604 14.1509 6.87273 14.5759 7.27433C15.0008 7.67594 15.3259 8.17133 15.5253 8.72096C15.7246 9.27058 15.7927 9.85921 15.7241 10.4398C15.6554 11.0205 15.452 11.577 15.13 12.065L16.032 12.972C16.1682 13.1139 16.2433 13.3036 16.2409 13.5003C16.2386 13.697 16.1591 13.8849 16.0196 14.0235C15.88 14.1621 15.6916 14.2404 15.4949 14.2414C15.2982 14.2424 15.109 14.1662 14.968 14.029L14.071 13.127C13.5059 13.5014 12.8498 13.7156 12.1727 13.7468C11.4955 13.778 10.8225 13.6251 10.2254 13.3043C9.6282 12.9835 9.12916 12.5068 8.78132 11.925C8.43348 11.3431 8.24987 10.6779 8.25 10ZM9.75 10C9.75 9.40326 9.98705 8.83097 10.409 8.40901C10.831 7.98705 11.4033 7.75 12 7.75C12.5967 7.75 13.169 7.98705 13.591 8.40901C14.0129 8.83097 14.25 9.40326 14.25 10C14.25 10.5967 14.0129 11.169 13.591 11.591C13.169 12.0129 12.5967 12.25 12 12.25C11.4033 12.25 10.831 12.0129 10.409 11.591C9.98705 11.169 9.75 10.5967 9.75 10Z" fill="#303337"/>
</svg>
