<svg width="30" height="30" viewBox="0 0 30 30" fill="none" xmlns="http://www.w3.org/2000/svg">
<path d="M10.7143 9.28571H22.1429M10.7143 14.9971H17.8572M10.7143 20.7143H22.1429" stroke="#F24E1E" stroke-linecap="round" stroke-linejoin="round"/>
<path fill-rule="evenodd" clip-rule="evenodd" d="M6.42714 10.7143C7.14143 10.7143 7.85571 10 7.85571 9.28572C7.85571 8.57143 7.14143 7.85715 6.42714 7.85715C5.71286 7.85715 5 8.57143 5 9.28572C5 10 5.71286 10.7143 6.42714 10.7143ZM6.42714 16.4286C7.14143 16.4286 7.85571 15.7143 7.85571 15C7.85571 14.2857 7.14143 13.5714 6.42714 13.5714C5.71286 13.5714 5 14.2857 5 15C5 15.7143 5.71286 16.4286 6.42714 16.4286ZM6.42714 22.1429C7.14143 22.1429 7.85571 21.4286 7.85571 20.7143C7.85571 20 7.14143 19.2857 6.42714 19.2857C5.71286 19.2857 5 20 5 20.7143C5 21.4286 5.71286 22.1429 6.42714 22.1429Z" fill="#F24E1E"/>
</svg>
