<svg width="69" height="69" viewBox="0 0 69 69" fill="none" xmlns="http://www.w3.org/2000/svg">
<path d="M28.75 46C29.5646 46 30.2479 45.724 30.7999 45.172C31.3519 44.62 31.6269 43.9377 31.625 43.125V25.875C31.625 25.0604 31.349 24.3771 30.797 23.8251C30.245 23.2731 29.5627 22.9981 28.75 23C27.9354 23 27.2521 23.276 26.7001 23.828C26.1481 24.38 25.8731 25.0623 25.875 25.875V43.125C25.875 43.9396 26.151 44.6229 26.703 45.1749C27.255 45.7269 27.9373 46.0019 28.75 46ZM40.25 46C41.0646 46 41.7479 45.724 42.2999 45.172C42.8519 44.62 43.1269 43.9377 43.125 43.125V25.875C43.125 25.0604 42.849 24.3771 42.297 23.8251C41.745 23.2731 41.0627 22.9981 40.25 23C39.4354 23 38.7521 23.276 38.2001 23.828C37.6481 24.38 37.3731 25.0623 37.375 25.875V43.125C37.375 43.9396 37.651 44.6229 38.203 45.1749C38.755 45.7269 39.4373 46.0019 40.25 46ZM34.5 63.25C30.5229 63.25 26.7854 62.4948 23.2875 60.9845C19.7896 59.4742 16.7469 57.4262 14.1594 54.8406C11.5719 52.2531 9.52392 49.2104 8.0155 45.7125C6.50708 42.2146 5.75192 38.4771 5.75 34.5C5.75 30.5229 6.50517 26.7854 8.0155 23.2875C9.52583 19.7896 11.5738 16.7469 14.1594 14.1594C16.7469 11.5719 19.7896 9.52392 23.2875 8.0155C26.7854 6.50708 30.5229 5.75192 34.5 5.75C38.4771 5.75 42.2146 6.50517 45.7125 8.0155C49.2104 9.52583 52.2531 11.5738 54.8406 14.1594C57.4281 16.7469 59.477 19.7896 60.9874 23.2875C62.4977 26.7854 63.2519 30.5229 63.25 34.5C63.25 38.4771 62.4948 42.2146 60.9845 45.7125C59.4742 49.2104 57.4262 52.2531 54.8406 54.8406C52.2531 57.4281 49.2104 59.477 45.7125 60.9874C42.2146 62.4977 38.4771 63.2519 34.5 63.25Z" fill="white"/>
</svg>
