<svg width="32" height="32" viewBox="0 0 32 32" fill="none" xmlns="http://www.w3.org/2000/svg">
<path opacity="0.3" d="M16 26.6667C21.88 26.6667 26.6667 21.88 26.6667 16C26.6667 10.12 21.88 5.33334 16 5.33334C10.12 5.33334 5.33334 10.12 5.33334 16C5.33334 21.88 10.12 26.6667 16 26.6667ZM13.3333 10L21.3333 16L13.3333 22V10Z" fill="white"/>
<path d="M16 29.3333C23.36 29.3333 29.3333 23.36 29.3333 16C29.3333 8.64 23.36 2.66666 16 2.66666C8.64 2.66666 2.66666 8.64 2.66666 16C2.66666 23.36 8.64 29.3333 16 29.3333ZM16 5.33333C21.88 5.33333 26.6667 10.12 26.6667 16C26.6667 21.88 21.88 26.6667 16 26.6667C10.12 26.6667 5.33333 21.88 5.33333 16C5.33333 10.12 10.12 5.33333 16 5.33333ZM13.3333 10V22L21.3333 16L13.3333 10Z" fill="white"/>
</svg>
