<svg width="32" height="32" viewBox="0 0 32 32" fill="none" xmlns="http://www.w3.org/2000/svg">
<path d="M6 26.015L6 5.985C6.00373 5.63041 6.10168 5.28319 6.2838 4.97892C6.46592 4.67465 6.72566 4.42427 7.03641 4.25344C7.34716 4.08261 7.69774 3.99747 8.05223 4.00675C8.40672 4.01603 8.75236 4.11939 9.05375 4.30625L24 13.6537L24 5C24 4.73478 24.1054 4.48043 24.2929 4.29289C24.4804 4.10536 24.7348 4 25 4C25.2652 4 25.5196 4.10536 25.7071 4.29289C25.8946 4.48043 26 4.73478 26 5L26 27C26 27.2652 25.8946 27.5196 25.7071 27.7071C25.5196 27.8946 25.2652 28 25 28C24.7348 28 24.4804 27.8946 24.2929 27.7071C24.1054 27.5196 24 27.2652 24 27V18.3462L9.05375 27.6937C8.75275 27.8827 8.40672 27.9878 8.05147 27.9981C7.69623 28.0084 7.34469 27.9235 7.03326 27.7523C6.72182 27.5811 6.46181 27.3297 6.28014 27.0243C6.09848 26.7188 6.00176 26.3704 6 26.015Z" fill="white"/>
</svg>
